<svg width="88" height="88" viewBox="0 0 88 88" fill="none" xmlns="http://www.w3.org/2000/svg">
<g filter="url(#filter0_d_2_77300)">
<rect x="6" y="4" width="76" height="76" rx="38" stroke="white" stroke-width="4"/>
<g clip-path="url(#clip0_2_77300)">
<rect x="8" y="6" width="72" height="72" rx="36" fill="#CAC2FF"/>
<mask id="mask0_2_77300" style="mask-type:luminance" maskUnits="userSpaceOnUse" x="9" y="55" width="67" height="34">
<path d="M9.51733 62.2708C9.51733 62.2708 12.1924 76.1472 12.465 76.4191C12.7369 76.691 42.7118 88.8898 42.7118 88.8898C42.7118 88.8898 62.0298 85.7604 62.0298 85.4431C62.0298 85.1258 75.9055 64.5376 75.9055 64.5376C75.9055 64.5376 74.4998 62.5882 71.0083 60.2297C70.4422 59.8482 69.5327 59.4761 68.4011 59.1183C68.1545 59.0404 67.897 58.9626 67.6301 58.8861C67.6287 58.8854 67.6265 58.8854 67.6251 58.8847C66.7401 58.6301 65.7521 58.3827 64.7084 58.1447C61.8769 60.3004 49.6413 55.8981 47.937 56.452C46.4333 56.9402 45.0529 58.3805 44.2876 60.1266C44.2804 60.141 44.2739 60.1562 44.2674 60.1713C44.1715 60.3942 44.085 60.6214 44.01 60.8522C43.9898 60.9156 43.9696 60.9791 43.9508 61.0426C43.9508 61.0426 43.9277 60.9712 43.8816 60.8464C43.5635 59.9824 42.1644 56.5421 39.9545 56.2558C38.1327 56.0199 34.7898 55.8346 32.1227 55.347C30.6334 55.7459 28.6197 56.2262 26.508 56.7109C26.1661 56.7895 25.8214 56.8681 25.4766 56.946C24.7525 57.1112 24.0248 57.2749 23.3101 57.4343C19.4342 58.3026 15.9463 59.0585 15.5028 59.2323C14.4599 59.6405 9.51733 62.2708 9.51733 62.2708Z" fill="white"/>
</mask>
<g mask="url(#mask0_2_77300)">
<path d="M9.51733 62.2708C9.51733 62.2708 12.1924 76.1472 12.465 76.4191C12.7369 76.691 42.7118 88.8898 42.7118 88.8898C42.7118 88.8898 62.0298 85.7604 62.0298 85.4431C62.0298 85.1258 75.9055 64.5376 75.9055 64.5376C75.9055 64.5376 74.4998 62.5882 71.0083 60.2297C70.4422 59.8482 69.5327 59.4761 68.4011 59.1183C68.1545 59.0404 67.897 58.9626 67.6301 58.8861C67.6287 58.8854 67.6265 58.8854 67.6251 58.8847C66.7401 58.6301 65.7521 58.3827 64.7084 58.1447C61.8769 60.3004 49.6413 55.8981 47.937 56.452C46.4333 56.9402 45.0529 58.3805 44.2876 60.1266C44.2804 60.141 44.2739 60.1562 44.2674 60.1713C44.1715 60.3942 44.085 60.6214 44.01 60.8522C43.9898 60.9156 43.9696 60.9791 43.9508 61.0426C43.9508 61.0426 43.9277 60.9712 43.8816 60.8464C43.5635 59.9824 42.1644 56.5421 39.9545 56.2558C38.1327 56.0199 34.7898 55.8346 32.1227 55.347C30.6334 55.7459 28.6197 56.2262 26.508 56.7109C26.1661 56.7895 25.8214 56.8681 25.4766 56.946C24.7525 57.1112 24.0248 57.2749 23.3101 57.4343C19.4342 58.3026 15.9463 59.0585 15.5028 59.2323C14.4599 59.6405 9.51733 62.2708 9.51733 62.2708Z" fill="#4C70F5" stroke="black" stroke-width="0.641089" stroke-linecap="round" stroke-linejoin="round"/>
<path d="M57.414 73.4236L51.3073 67.4302L49.3002 74.8804L57.414 73.4236Z" fill="#F5D256" stroke="black" stroke-width="0.641089" stroke-linecap="round" stroke-linejoin="round"/>
<path d="M35.7627 74.3265L36.4031 65.7937L29.4159 69.0652L35.7627 74.3265Z" fill="#49A2A6" stroke="black" stroke-width="0.641089" stroke-linecap="round" stroke-linejoin="round"/>
<path d="M23.4485 73.4113L16.1353 77.854L22.8607 81.6347L23.4485 73.4113Z" fill="#F5D256" stroke="black" stroke-width="0.641089" stroke-linecap="round" stroke-linejoin="round"/>
<path d="M71.2868 58.5475L63.9742 62.9895L70.6997 66.7702L71.2868 58.5475Z" fill="#49A2A6" stroke="black" stroke-width="0.641089" stroke-linecap="round" stroke-linejoin="round"/>
<path d="M22.979 68.2386L24.6342 58.7365L13.0614 64.155L22.979 68.2386Z" fill="#BF9EF9" stroke="black" stroke-width="0.641089" stroke-linecap="round" stroke-linejoin="round"/>
<path d="M56.1301 64.282L57.786 54.7805L46.2133 60.1991L56.1301 64.282Z" fill="#E938B5" stroke="black" stroke-width="0.641089" stroke-linecap="round" stroke-linejoin="round"/>
<path d="M64.4048 72.2847L69.0545 80.7346L74.6967 69.2693L64.4048 72.2847Z" fill="#BF9EF9" stroke="black" stroke-width="0.641089" stroke-linecap="round" stroke-linejoin="round"/>
<path d="M31.628 62.0779L40.4147 58.0989L29.4225 51.5819L31.628 62.0779Z" fill="#F5D256" stroke="black" stroke-width="0.641089" stroke-linecap="round" stroke-linejoin="round"/>
</g>
<path opacity="0.52" d="M44.01 60.8527C44.0151 60.8757 44.0201 60.8981 44.0252 60.9212L44.2365 62.6586C44.2603 61.2609 45.5967 60.1776 46.9692 59.9151C48.3417 59.6525 49.7466 59.9995 51.1163 60.2786C53.5958 60.7827 56.1208 61.0676 58.6502 61.1275C62.0133 61.2068 65.5242 60.844 68.4012 59.1188C68.1545 59.0409 67.897 58.9631 67.6302 58.8866C67.6287 58.8859 67.6266 58.8859 67.6251 58.8852C66.7402 58.6306 65.7521 58.3832 64.7085 58.1452C61.8769 60.3009 49.6413 55.8986 47.9371 56.4525C46.4203 56.9451 45.0291 58.4055 44.2675 60.1718C44.1716 60.3947 44.085 60.6219 44.01 60.8527Z" fill="#0B41B7"/>
<path opacity="0.52" d="M25.4766 56.9465C29.2781 58.976 33.9755 58.583 37.9357 60.3031C39.3299 60.9082 40.6122 61.7715 41.6969 62.836C42.0676 63.1988 42.5913 63.6171 43.0406 63.3582C43.1791 63.2789 43.2771 63.1454 43.3651 63.012C43.8368 62.2915 44.2905 61.0777 44.2876 60.1271C44.2804 60.1415 44.2739 60.1567 44.2674 60.1718C44.1715 60.3947 44.0849 60.6219 44.0099 60.8527C43.9897 60.9161 43.9695 60.9796 43.9508 61.0431C43.9508 61.0431 43.9277 60.9717 43.8815 60.8469C43.5635 59.9829 42.1643 56.5426 39.9545 56.2563C38.1326 56.0204 34.7898 55.8351 32.1227 55.3475C30.6333 55.7464 28.6197 56.2267 26.5079 56.7114C26.1661 56.79 25.8213 56.8686 25.4766 56.9465Z" fill="#0B41B7"/>
<path d="M32.6499 32.5439C33.2831 33.6084 35.079 34.7638 36.4291 35.5247C36.8885 38.305 36.3087 43.7193 35.6805 48.0553C35.56 48.8861 35.4374 49.678 35.3206 50.4036C35.0812 51.8908 34.8641 53.1024 34.7285 53.8128C37.1532 54.1352 39.7359 54.2088 40.8257 54.291C42.3966 54.4093 43.2274 57.6086 43.6306 59.5639C43.7481 60.1315 43.8289 60.5945 43.8816 60.8469C43.9277 60.9717 43.9508 61.0431 43.9508 61.0431C43.9659 60.3983 44.0467 59.7997 44.178 59.2458C44.2249 59.0475 44.2789 58.8549 44.3388 58.6681C44.4095 58.4474 44.4881 58.2347 44.5747 58.0298C45.275 56.371 46.4599 55.2445 47.5937 54.6379C48.0524 54.3927 48.7332 54.3357 49.5771 54.3999C49.4545 53.8871 49.4033 53.168 49.3932 52.3819C49.3823 51.4559 49.4292 50.4368 49.4855 49.5554C49.554 48.4945 49.6369 47.6326 49.6499 47.3687C51.4025 47.9831 53.264 48.219 55.0346 47.6687C55.4125 47.5511 55.7861 47.3982 56.1539 47.2049C62.5786 43.8325 58.4445 33.8767 55.2798 28.0513C53.8669 25.4506 52.6473 23.6735 52.6473 23.6735C52.5247 23.5934 51.6189 23.4117 50.356 23.2357H50.3553C47.0578 22.7756 41.3255 22.3522 40.7399 23.8617C39.9307 25.9497 41.5116 27.0899 41.0854 27.9424C40.6591 28.7942 39.7648 30.9247 39.7648 30.9247C39.7648 30.9247 39.622 30.6196 39.3717 30.1891C38.7075 29.0459 37.2888 27.0207 35.8024 27.5162C35.1165 27.7448 34.4169 28.184 33.8298 28.7351C33.7534 28.8057 33.6791 28.8793 33.607 28.9543C32.5763 30.0246 31.9885 31.4324 32.6499 32.5439Z" fill="#CC927A" stroke="black" stroke-width="0.641089" stroke-linecap="round" stroke-linejoin="round"/>
<path d="M54.6214 41.35C54.4829 42.5754 54.2622 43.8073 54.3921 45.0341C54.4873 45.9334 54.7678 46.8003 55.0347 47.6687C55.4126 47.5511 55.7862 47.3982 56.154 47.205C62.5787 43.8325 58.4446 33.8767 55.2799 28.0513C53.867 25.4506 52.6474 23.6735 52.6474 23.6735C52.5248 23.5934 51.6189 23.4117 50.3561 23.2357C53.7884 28.5483 55.3318 35.0631 54.6214 41.35Z" fill="#FFC7B3"/>
<path d="M33.8298 28.735C34.8006 28.8071 35.7627 28.9607 36.6412 29.366C37.3025 29.6718 37.9149 30.119 38.6325 30.2459C38.8777 30.2899 39.1482 30.2863 39.3717 30.189C38.7075 29.0458 37.2888 27.0206 35.8024 27.5161C35.1165 27.7447 34.4169 28.184 33.8298 28.735Z" fill="#FFC7B3"/>
<path d="M42.8445 43.1437C42.8445 43.1437 42.9837 50.0018 49.3918 50.9336L49.65 47.3686C49.65 47.3686 44.8581 45.3542 42.8445 43.1437Z" fill="#B27059"/>
<path d="M34.7285 53.8128C37.1533 54.1352 39.736 54.2088 40.8258 54.291C42.3966 54.4093 43.2274 57.6086 43.6306 59.5639C43.7842 59.5278 43.9299 59.4715 44.0576 59.3655C44.1008 59.3295 44.1412 59.2898 44.178 59.2458C44.2884 59.1153 44.3727 58.9523 44.4348 58.7676C44.5098 58.5462 44.5531 58.2938 44.5747 58.0298C44.636 57.274 44.5177 56.4251 44.4355 55.9375C44.3259 55.2899 44.0908 54.6465 43.7244 54.1049C43.4496 53.6974 43.1012 53.3491 42.6757 53.1002C41.2585 52.2701 39.4396 52.7339 37.8558 52.3004C36.9008 52.0386 36.0433 51.4378 35.4707 50.63C35.418 50.5557 35.3682 50.4807 35.3206 50.4036C35.0812 51.8907 34.8641 53.1024 34.7285 53.8128Z" fill="#B27059"/>
<path d="M44.2833 58.7365C44.2732 58.681 44.2624 58.6262 44.253 58.5706C44.129 58.4249 44.0208 58.2663 43.9292 58.0953L44.2833 58.7365Z" fill="#B27059"/>
<path d="M43.7243 54.6342C43.8354 55.9541 44.0121 57.2681 44.253 58.5707C44.2804 58.6039 44.3085 58.6363 44.3388 58.668C44.3698 58.7019 44.4015 58.7351 44.4347 58.7676C44.5097 58.5462 44.553 58.2937 44.5746 58.0298C45.2749 56.3709 46.4599 55.2444 47.5937 54.6378C48.0524 54.3926 48.7332 54.3356 49.5771 54.3998C49.4544 53.887 49.4032 53.168 49.3931 52.3818C48.7505 52.8139 48.2413 53.5055 47.4891 53.6945C46.54 53.9339 45.5685 53.287 44.5941 53.3829C44.3172 53.4103 44.0279 53.5113 43.8649 53.737C43.7863 53.8459 43.7445 53.9714 43.7243 54.1041C43.6983 54.2765 43.7099 54.4597 43.7243 54.6342Z" fill="#B27059"/>
<path d="M32.6499 32.5438C33.2831 33.6084 35.079 34.7638 36.4291 35.5247C36.8885 38.305 36.3087 43.7192 35.6805 48.0553C35.3134 50.5896 34.9297 52.7562 34.7285 53.8128C37.1532 54.1352 39.7359 54.2088 40.8257 54.291C42.8524 54.4439 43.6472 59.7261 43.8816 60.8469C43.9277 60.9717 43.9508 61.0431 43.9508 61.0431C44.0308 57.68 45.8721 55.5589 47.5937 54.6379C48.0524 54.3927 48.7332 54.3357 49.5771 54.3999C49.3102 53.282 49.3809 51.1847 49.4855 49.5554C49.554 48.4945 49.6369 47.6326 49.6499 47.3686C51.7768 48.1144 54.0631 48.3019 56.1539 47.2049C62.5786 43.8325 58.4445 33.8767 55.2798 28.0513C53.8669 25.4506 52.6473 23.6735 52.6473 23.6735C52.2052 23.3835 41.5498 21.7738 40.7399 23.8617C39.9307 25.9497 41.5116 27.0899 41.0854 27.9424C40.6591 28.7942 39.7648 30.9247 39.7648 30.9247C39.7648 30.9247 37.8478 26.8346 35.8024 27.5162C35.0278 27.7744 34.2352 28.3016 33.607 28.9543C32.5763 30.0246 31.9885 31.4324 32.6499 32.5438Z" stroke="black" stroke-width="0.641089" stroke-linecap="round" stroke-linejoin="round"/>
<path d="M9.51733 62.2713C9.51733 62.2713 12.1924 76.1477 12.465 76.4196C12.7369 76.6915 42.7118 88.8903 42.7118 88.8903C42.7118 88.8903 62.0298 85.7609 62.0298 85.4436C62.0298 85.1262 75.9055 64.5381 75.9055 64.5381C75.9055 64.5381 74.4998 62.5886 71.0083 60.2302C70.3189 59.765 69.1195 59.315 67.6301 58.8866C67.6287 58.8859 67.6265 58.8859 67.6251 58.8851C66.7401 58.6306 65.7521 58.3832 64.7084 58.1452C61.8769 60.3009 49.6413 55.8986 47.937 56.4525C46.1765 57.0244 44.5862 58.8989 43.9508 61.0431C43.9508 61.0431 43.9277 60.9717 43.8816 60.8469C43.5635 59.9829 42.1644 56.5426 39.9545 56.2563C38.1327 56.0204 34.7898 55.8351 32.1227 55.3475C30.6334 55.7464 28.6197 56.2267 26.508 56.7114C21.5589 57.848 16.0675 59.0121 15.5028 59.2328C14.4599 59.641 9.51733 62.2713 9.51733 62.2713Z" stroke="black" stroke-width="0.641089" stroke-linecap="round" stroke-linejoin="round"/>
<path d="M36.4292 35.5247C37.3473 36.0425 38.0606 36.3779 38.0606 36.3779" stroke="black" stroke-width="0.641089" stroke-linecap="round" stroke-linejoin="round"/>
<path d="M42.8445 43.1437C44.2646 44.3914 46.8148 46.3755 49.65 47.3686" stroke="black" stroke-width="0.641089" stroke-linecap="round" stroke-linejoin="round"/>
<path d="M30.787 21.5905C30.849 21.8018 31.0394 21.9439 31.1923 22.1026C31.9684 22.9125 31.8011 24.1999 31.9886 25.3063C32.0326 25.5652 32.1999 25.889 32.4559 25.827C32.267 26.1343 32.2836 26.5555 32.4963 26.8468C32.7091 27.1389 33.1043 27.2832 33.4556 27.1981C33.4577 27.4325 33.3553 27.6654 33.1822 27.8226C33.338 28.1465 33.3156 28.5496 33.1252 28.854C33.2897 28.8107 33.4721 28.8518 33.607 28.9542C34.2352 28.3015 35.0278 27.7743 35.8024 27.5161C37.8478 26.8346 39.7648 30.9246 39.7648 30.9246C39.7648 30.9246 40.6592 28.7941 41.0854 27.9424C41.5116 27.0899 39.9307 25.9496 40.7399 23.8617C41.5499 21.7737 52.2053 23.3835 52.6474 23.6734C52.6474 23.6734 53.867 25.4505 55.2799 28.0513C55.528 27.5587 55.7184 27.0286 55.8352 26.4855C55.9153 26.1148 55.9607 25.7376 55.9672 25.3611C55.9758 24.8144 55.9189 24.236 56.1698 23.7506C55.696 23.5003 55.8547 22.7993 55.7587 22.2721C55.6462 21.6504 55.0902 21.0987 55.2337 20.4827C54.8139 20.1481 54.6257 19.5502 54.7764 19.0352C54.1677 18.7756 53.7696 18.0919 53.8446 17.4341C53.3333 17.2971 52.9142 16.8607 52.7981 16.3443C52.4902 16.5412 52.0877 16.5816 51.7473 16.4496C51.5865 16.3869 51.4343 16.2874 51.2626 16.2801C50.8991 16.2657 50.6215 16.6602 50.258 16.6631C49.6622 16.6689 49.3983 15.6729 48.8069 15.7457C48.5328 15.7796 48.3453 16.0429 48.0863 16.1388C47.6478 16.3011 47.2014 15.9462 46.8675 15.6188C46.6352 16.164 45.9212 16.4431 45.381 16.1994C45.2108 16.1222 45.0594 16.0025 44.8812 15.9462C44.8495 15.9361 44.817 15.9282 44.7853 15.9231C44.372 15.8467 43.9544 16.1013 43.5607 16.2787C43.1359 16.4705 42.5257 16.5189 42.3072 16.1078C42.1507 16.5607 41.534 16.6343 41.0681 16.5239C40.6022 16.4128 40.1125 16.2015 39.6653 16.3717C39.2506 16.5297 38.8186 16.9934 38.4637 16.728C38.3931 16.6754 38.3426 16.5996 38.2697 16.5506C38.0808 16.4222 37.8146 16.521 37.6473 16.6768C37.4793 16.8326 37.3617 17.0389 37.1807 17.1788C36.7768 17.4904 36.0996 17.323 35.8882 16.8586C35.5002 17.7125 34.2229 17.9851 33.5197 17.3649C33.2875 17.6635 33.276 18.0717 33.1772 18.4366C33.0784 18.8023 32.7891 19.191 32.4141 19.1405C32.2006 19.1117 32.0059 18.9415 31.7946 18.9855C31.5789 19.0295 31.4722 19.2675 31.3993 19.4752C31.2219 19.9786 31.0445 20.482 30.8664 20.9847C30.7978 21.1801 30.7279 21.3915 30.787 21.5905Z" fill="#3D0027" stroke="black" stroke-width="0.641089" stroke-linecap="round" stroke-linejoin="round"/>
<path d="M37.9582 33.3177C37.9878 33.0097 37.863 32.7068 37.7022 32.4421C37.3113 31.8002 36.6845 31.3047 35.9691 31.0725C35.6164 30.9586 35.1836 30.9239 34.9189 31.1836" stroke="black" stroke-width="0.641089" stroke-linecap="round" stroke-linejoin="round"/>
<path d="M37.04 31.7591C36.9441 31.6639 36.7948 31.6387 36.6621 31.6646C36.5294 31.6906 36.4097 31.7598 36.2964 31.8334C36.1197 31.9466 35.9488 32.0736 35.8147 32.2351C35.6805 32.3967 35.5839 32.5957 35.5759 32.8056" stroke="black" stroke-width="0.641089" stroke-linecap="round" stroke-linejoin="round"/>
<path d="M53.3874 32.9974C53.4941 33.0688 55.3441 36.6627 54.4901 37.1604C53.6362 37.6587 51.999 35.5246 51.999 35.5246" stroke="black" stroke-width="0.641089" stroke-linecap="round" stroke-linejoin="round"/>
<path d="M48.3885 37.0839L52.2449 40.8321C52.2449 40.8321 50.8212 42.9792 48.739 41.3716C46.2472 39.4473 48.3885 37.0839 48.3885 37.0839Z" fill="white" stroke="black" stroke-width="0.641089" stroke-linecap="round" stroke-linejoin="round"/>
<path d="M44.724 16.0804C44.7182 16.2022 44.8206 16.2996 44.9144 16.3782C45.4366 16.8153 45.9623 17.2545 46.5595 17.5812C47.4524 18.0702 48.4657 18.2859 49.4105 18.6631C50.5565 19.1203 51.5958 19.812 52.5637 20.5772C53.2857 21.147 53.9852 21.7752 54.4454 22.5714C55.1399 23.7722 55.2272 25.2443 55.8352 26.4855C55.9153 26.1148 55.9607 25.7376 55.9672 25.3611C55.9758 24.8144 55.9189 24.236 56.1698 23.7506C55.696 23.5003 55.8547 22.7993 55.7587 22.2721C55.6462 21.6504 55.0902 21.0987 55.2337 20.4827C54.8139 20.1481 54.6257 19.5502 54.7764 19.0352C54.1677 18.7756 53.7696 18.0919 53.8446 17.4341C53.3333 17.2971 52.9142 16.8607 52.7981 16.3443C52.4902 16.5412 52.0877 16.5816 51.7473 16.4496C51.5865 16.3869 51.4343 16.2874 51.2626 16.2801C50.8991 16.2657 50.6215 16.6602 50.258 16.6631C49.6622 16.6689 49.3983 15.6729 48.8068 15.7457C48.5328 15.7796 48.3453 16.0429 48.0863 16.1388C47.6478 16.3011 47.2014 15.9462 46.8675 15.6188C46.6352 16.164 45.9212 16.4431 45.381 16.1994C45.2108 16.1222 45.0594 16.0025 44.8812 15.9462C44.8495 15.9361 44.817 15.9282 44.7853 15.9231C44.7536 15.9715 44.7269 16.0234 44.724 16.0804Z" fill="#6D1151"/>
<path d="M43.9508 61.0431C43.8707 64.4054 43.4308 79.8563 43.4308 79.8563" stroke="black" stroke-width="0.641089" stroke-linecap="round" stroke-linejoin="round"/>
<path d="M49.5772 54.3998C51.8988 54.5758 55.458 55.6691 59.0483 56.2829C62.2058 56.8231 65.4319 56.0802 63.261 54.0839C63.1427 53.975 63.0021 53.8661 62.842 53.7557C62.8398 53.755 62.8383 53.7536 62.8362 53.7521C62.8347 53.7514 62.834 53.7507 62.834 53.7507C59.7486 51.6512 49.4856 49.5553 49.4856 49.5553C49.381 51.1845 49.3103 53.2819 49.5772 54.3998Z" fill="#0638C4" stroke="black" stroke-width="0.641089" stroke-linecap="round" stroke-linejoin="round"/>
<path d="M29.4982 51.3959C29.4513 52.7669 31.9893 53.4485 34.7285 53.8127C34.9298 52.7561 35.3134 50.5896 35.6805 48.0552C35.6805 48.0552 32.4545 48.4555 30.663 49.6686C29.9915 50.1229 29.522 50.6913 29.4982 51.3959Z" fill="#0638C4" stroke="black" stroke-width="0.641089" stroke-linecap="round" stroke-linejoin="round"/>
<path d="M43.9508 61.043C44.5862 58.8988 46.1765 57.0243 47.937 56.4524C49.6413 55.8985 61.8769 60.3009 64.7084 58.1451C64.8022 58.0744 64.8858 57.9958 64.958 57.91C65.8855 56.8065 65.0589 55.6057 64.1805 54.7792C64.1783 54.777 64.1754 54.7748 64.1733 54.7727C63.5566 54.1942 62.9162 53.8005 62.8419 53.7557C63.002 53.8661 63.1426 53.975 63.2609 54.0839C65.4318 56.0802 62.2058 56.8231 59.0482 56.2829C55.458 55.6691 51.8987 54.5758 49.5771 54.3998C48.7333 54.3356 48.0524 54.3926 47.5937 54.6378C45.8722 55.5588 44.0309 57.6799 43.9508 61.043Z" fill="#4C70F5" stroke="black" stroke-width="0.641089" stroke-linecap="round" stroke-linejoin="round"/>
<path d="M43.9508 61.043C43.9386 61.0855 43.9162 61.0105 43.8816 60.8468" stroke="black" stroke-width="0.641089" stroke-linecap="round" stroke-linejoin="round"/>
<path d="M28.2238 53.6699C28.606 54.4792 30.1862 54.9934 32.1227 55.3475C34.7898 55.8351 38.1327 56.0204 39.9545 56.2563C42.1643 56.5426 43.5635 59.9828 43.8816 60.8469C43.6472 59.7261 42.8524 54.4438 40.8257 54.2909C39.736 54.2087 37.1533 54.1351 34.7285 53.8127C31.9893 53.4485 29.4513 52.767 29.4982 51.3959C29.522 50.6913 29.9915 50.123 30.663 49.6686C30.5966 49.696 28.8289 50.4367 28.2014 51.7421C28.2014 51.7421 28.2014 51.7428 28.2 51.7443C27.9389 52.2902 27.8769 52.9357 28.2238 53.6699Z" fill="#4C70F5" stroke="black" stroke-width="0.641089" stroke-linecap="round" stroke-linejoin="round"/>
<path d="M30.663 49.6686L30.6654 49.6678" stroke="black" stroke-width="0.641089" stroke-linecap="round" stroke-linejoin="round"/>
<path d="M26.5079 56.7113C28.6197 56.2267 30.6333 55.7463 32.1227 55.3475C30.1862 54.9934 28.606 54.4792 28.2237 53.6699C27.8768 52.9357 27.9388 52.2902 28.1999 51.7443C28.1502 51.8265 26.5555 54.482 26.5079 56.7113Z" fill="#0638C4" stroke="black" stroke-width="0.641089" stroke-linecap="round" stroke-linejoin="round"/>
<path d="M28.2 51.7446L28.2016 51.7422" stroke="black" stroke-width="0.641089" stroke-linecap="round" stroke-linejoin="round"/>
<path d="M64.9579 57.91C64.8858 57.9959 64.8021 58.0745 64.7084 58.1452C65.752 58.3832 66.7401 58.6305 67.625 58.8851C67.6264 58.8859 67.6286 58.8859 67.6301 58.8866C66.7328 57.0006 64.1732 54.7727 64.1732 54.7727C65.0546 55.5992 65.8883 56.8037 64.9579 57.91Z" fill="#0638C4" stroke="black" stroke-width="0.641089" stroke-linecap="round" stroke-linejoin="round"/>
<path d="M42.7117 64.3138C42.7117 64.895 43.1829 65.3661 43.764 65.3661C44.3452 65.3661 44.8163 64.895 44.8163 64.3138V62.5634C44.8163 61.9823 44.3452 61.5111 43.764 61.5111C43.1829 61.5111 42.7117 61.9823 42.7117 62.5634V64.3138Z" fill="#F5D256" stroke="black" stroke-width="0.641089" stroke-linecap="round" stroke-linejoin="round"/>
<path d="M30.787 21.5905C30.849 21.8018 31.0394 21.9439 31.1923 22.1026C31.9684 22.9125 31.8011 24.1999 31.9886 25.3063C32.0326 25.5652 32.1999 25.889 32.4559 25.827C32.267 26.1343 32.2836 26.5554 32.4963 26.8468C32.7091 27.1389 33.1043 27.2832 33.4556 27.1981C33.4577 27.4325 33.3553 27.6654 33.1822 27.8226C33.338 28.1465 33.3156 28.5496 33.1252 28.854C33.2897 28.8107 33.4721 28.8518 33.607 28.9542C34.2352 28.3015 35.0278 27.7743 35.8024 27.5161C37.8478 26.8346 39.7648 30.9246 39.7648 30.9246C39.7648 30.9246 40.6592 28.7941 41.0854 27.9424C41.5116 27.0899 39.9307 25.9496 40.7399 23.8617C41.5499 21.7737 52.2053 23.3835 52.6474 23.6734C52.6474 23.6734 53.867 25.4505 55.2799 28.0513C55.6974 27.2219 55.952 26.2886 55.9672 25.3611C55.9758 24.8144 55.9189 24.236 56.1698 23.7506C55.696 23.5003 55.8547 22.7993 55.7587 22.2721C55.6462 21.6504 55.0902 21.0987 55.2337 20.4827C54.8139 20.1481 54.6257 19.5502 54.7764 19.0352C54.1677 18.7756 53.7696 18.0919 53.8446 17.4341C53.3333 17.2971 52.9142 16.8607 52.7981 16.3443C52.4902 16.5412 52.0877 16.5816 51.7473 16.4496C51.5865 16.3869 51.4343 16.2874 51.2626 16.2801C50.8991 16.2657 50.6215 16.6602 50.258 16.6631C49.6622 16.6689 49.3983 15.6729 48.8069 15.7457C48.5328 15.7796 48.3453 16.0429 48.0863 16.1388C47.6478 16.3011 47.2014 15.9462 46.8675 15.6188C46.6352 16.164 45.9212 16.4431 45.381 16.1994C45.2108 16.1222 45.0594 16.0025 44.8812 15.9462C44.4369 15.8063 43.9855 16.0876 43.5607 16.2787C43.1359 16.4705 42.5257 16.5189 42.3072 16.1078C42.1507 16.5607 41.534 16.6343 41.0681 16.5239C40.6022 16.4128 40.1125 16.2015 39.6653 16.3717C39.2506 16.5297 38.8186 16.9934 38.4637 16.728C38.3931 16.6754 38.3426 16.5996 38.2697 16.5506C38.0808 16.4222 37.8146 16.521 37.6473 16.6768C37.4793 16.8326 37.3617 17.0389 37.1807 17.1788C36.7768 17.4904 36.0996 17.323 35.8882 16.8586C35.5002 17.7125 34.2229 17.9851 33.5197 17.3649C33.2875 17.6635 33.276 18.0717 33.1772 18.4366C33.0784 18.8023 32.7891 19.191 32.4141 19.1405C32.2006 19.1117 32.0059 18.9415 31.7946 18.9855C31.5789 19.0295 31.4722 19.2675 31.3993 19.4752C31.2219 19.9786 31.0445 20.482 30.8664 20.9847C30.7978 21.1801 30.7279 21.3915 30.787 21.5905Z" stroke="black" stroke-width="0.641089" stroke-linecap="round" stroke-linejoin="round"/>
<path opacity="0.52" d="M27.7609 78.2774C27.8287 80.8644 28.322 83.6137 27.1536 85.9224C26.7526 86.715 26.0934 87.4564 25.2193 87.6144C24.2766 87.7846 23.3665 87.2458 22.5594 86.7301C21.3513 85.9577 20.1433 85.1853 18.9352 84.4128C18.0546 83.8496 17.1531 83.2668 16.5408 82.4201C15.8109 81.4097 15.5693 80.1252 15.5159 78.8796C15.4344 76.9792 15.7431 75.0816 16.165 73.2266C16.9749 69.6616 18.2494 66.1125 20.5868 63.3011C21.0693 62.7205 21.6031 62.1681 22.2522 61.7808C24.0624 60.7011 27.2575 59.8883 28.1979 62.4075C29.3072 65.379 28.5001 69.2671 28.1511 72.3157C27.9246 74.294 27.7082 76.2825 27.7609 78.2774Z" fill="#0B41B7"/>
<path d="M26.1471 61.8884L18.9731 75.128C18.9731 75.128 4.88752 54.9546 5.14572 55.0065C5.28203 55.0332 11.2278 53.1551 16.8108 51.3759C17.1231 53.1522 17.9013 55.5186 19.4916 57.5676C21.3329 59.9404 24.1681 61.3511 26.1471 61.8884Z" fill="#CC927A" stroke="black" stroke-width="0.641089" stroke-linecap="round" stroke-linejoin="round"/>
<path d="M39.5251 51.9066C39.0895 52.7317 31.7683 54.49 30.3237 54.1806L29.7496 55.2408L28.1752 58.1467L27.3371 59.6923C27.3371 59.6923 24.6527 58.5794 22.4011 55.7782C21.4858 54.6393 20.9125 53.5964 20.554 52.7375C19.9518 51.2979 19.9518 50.3733 19.9518 50.3733C20.5028 50.1973 21.0365 50.0264 21.5457 49.8634C22.5489 49.5417 23.4569 49.2511 24.2135 49.0087C25.6235 48.5565 26.5084 48.2716 26.5084 48.2716C26.5084 48.2716 26.489 44.8934 28.199 43.443C30.4802 41.508 30.8546 37.2462 31.8203 37.0854C32.641 36.9484 33.4539 39.4157 33.3118 41.8888C33.2873 42.3251 33.2324 42.7622 33.1423 43.1848C33.1423 43.1848 37.8512 42.8257 38.3668 43.2382C38.8825 43.6515 39.347 44.2703 38.5731 45.2504C38.5731 45.2504 39.6535 46.4888 38.9842 47.4689C38.9842 47.4689 40.0386 48.7981 39.2027 49.7328C39.2027 49.7328 39.9608 51.0808 39.5251 51.9066Z" fill="#CC927A" stroke="black" stroke-width="0.641089" stroke-linecap="round" stroke-linejoin="round"/>
<path d="M28.1499 62.0867C27.8903 62.1646 27.4561 62.1567 26.9066 62.0607C26.9044 62.0607 26.9022 62.06 26.9001 62.0593C26.6678 62.0182 26.4154 61.9612 26.1471 61.8884C24.1681 61.3511 21.3329 59.9403 19.4916 57.5675C17.9013 55.5185 17.1231 53.1522 16.8108 51.3758C16.6897 50.6884 16.6392 50.0898 16.637 49.6326C16.6356 49.2756 16.6644 49.0044 16.7135 48.8428C16.9883 47.9391 18.7329 47.9745 19.5738 47.9355C20.4155 47.8959 21.5457 49.8634 21.5457 49.8634C21.0365 50.0264 20.5028 50.1973 19.9518 50.3733C19.9518 50.3733 19.9518 52.0206 21.3841 54.3422C21.664 54.7973 21.9993 55.2783 22.4011 55.7781C24.6527 58.5794 27.3371 59.6922 27.3371 59.6922L28.1752 58.1467C28.2163 58.1668 29.5282 58.8369 29.7287 59.6922C29.803 60.0103 29.3284 61.7333 28.1499 62.0867Z" fill="#49A2A6" stroke="black" stroke-width="0.641089" stroke-linecap="round" stroke-linejoin="round"/>
<path d="M28.1752 58.1467H28.1744" stroke="black" stroke-width="0.641089" stroke-linecap="round" stroke-linejoin="round"/>
<path d="M28.1499 62.0867C28.1499 62.0867 26.4565 68.0549 25.7172 70.0411C25.6242 70.2921 25.4864 70.6671 25.3112 71.1287C25.0833 71.7273 24.7919 72.4709 24.45 73.2765C23.8132 74.7752 23.0011 76.4889 22.101 77.8794H22.1003C21.1901 79.2829 20.1897 80.3575 19.1865 80.5515C16.7372 81.0254 11.6281 77.1632 8.03709 73.2268C7.31009 72.4298 6.64512 71.6292 6.07752 70.8619C4.98919 69.3906 4.03429 67.3798 3.3109 65.2514C1.79199 60.7849 1.29002 55.7991 2.70507 54.1907C3.17098 53.6621 4.12011 53.1421 5.31518 52.6538C6.04506 52.3559 6.86726 52.0696 7.72624 51.8006C11.7709 50.5298 16.637 49.6326 16.637 49.6326C16.6392 50.0898 16.6896 50.6884 16.8108 51.3758C17.0041 52.4756 17.3762 53.802 18.0095 55.1391C18.3982 55.9613 18.8858 56.7879 19.4916 57.5675C19.5075 57.5884 19.5233 57.6086 19.5399 57.6288C20.6196 58.9984 22.0296 60.0428 23.4071 60.7798C24.3794 61.3006 25.335 61.6677 26.1471 61.8884C27.0529 62.135 27.7799 62.1978 28.1499 62.0867Z" fill="#4C70F5" stroke="black" stroke-width="0.641089" stroke-linecap="round" stroke-linejoin="round"/>
<path d="M29.7496 55.2408L28.1751 58.1467L27.3371 59.6923C27.3371 59.6923 24.6527 58.5794 22.401 55.7782C21.4858 54.6393 20.9124 53.5965 20.554 52.7375C20.5922 52.7036 20.6362 52.6762 20.6859 52.6567C20.89 52.5774 21.1172 52.6661 21.3148 52.7598C23.167 53.6383 24.8553 55.106 26.9043 55.1824C27.5412 55.2062 28.1766 55.0901 28.8134 55.1096C29.1301 55.1197 29.4438 55.1644 29.7496 55.2408Z" fill="#B27059"/>
<path d="M33.3118 41.8888C32.3021 42.3734 31.1055 42.6612 30.4023 43.5216C30.023 43.9854 29.8311 44.5696 29.6249 45.1321C29.1344 46.4686 28.5171 47.7704 27.6581 48.9063C27.2455 49.453 26.7154 49.9918 26.0353 50.0689C25.2939 50.1526 24.6289 49.6506 24.2135 49.0087C25.6235 48.5565 26.5084 48.2716 26.5084 48.2716C26.5084 48.2716 26.489 44.8934 28.199 43.443C30.4802 41.508 30.8546 37.2462 31.8203 37.0854C32.641 36.9484 33.4538 39.4157 33.3118 41.8888Z" fill="#FFC7B3"/>
<path d="M28.1499 62.0867C28.1499 62.0867 26.4565 68.0549 25.7172 70.0411C25.6242 70.2921 25.4864 70.6672 25.3112 71.1287C25.1727 71.0018 25.0407 70.8677 24.9152 70.7306C23.9769 69.7094 23.2629 68.5049 22.6094 67.2824C21.7541 65.6835 20.9888 64.0369 20.3181 62.3521C19.7173 60.8419 19.1923 59.3028 18.6679 57.7644C18.4775 57.2055 17.9438 55.9715 18.0095 55.1392C18.3982 55.9614 18.8858 56.7879 19.4916 57.5675C21.3329 59.9404 24.168 61.3511 26.1471 61.8884C27.0529 62.1351 27.7799 62.1978 28.1499 62.0867Z" fill="#0638C4"/>
<path d="M28.1499 62.0867C27.8903 62.1646 27.4561 62.1566 26.9065 62.0607C26.9044 62.0607 26.9022 62.06 26.9 62.0593C25.9358 61.8105 24.9917 61.5234 24.2575 60.8721C23.9827 60.6284 23.749 60.3413 23.5168 60.0564C23.1417 59.5956 22.7667 59.1347 22.3917 58.6738C21.9257 58.1012 21.4533 57.5184 21.1692 56.8376C20.8843 56.1575 20.8086 55.3519 21.1396 54.6927C21.2096 54.552 21.2925 54.4381 21.3841 54.3422C21.6639 54.7973 21.9993 55.2783 22.401 55.7781C24.6527 58.5794 27.3371 59.6922 27.3371 59.6922L28.1752 58.1466C28.2163 58.1668 29.5282 58.8368 29.7287 59.6922C29.803 60.0103 29.3284 61.7333 28.1499 62.0867Z" fill="#2D8787"/>
<path d="M14.5851 70.5301L8.03711 73.2268C7.31011 72.4298 6.64514 71.6293 6.07754 70.8619C4.98921 69.3906 4.0343 67.3798 3.31091 65.2515L14.5851 70.5301Z" fill="#BF9EF9" stroke="black" stroke-width="0.641089" stroke-linecap="round" stroke-linejoin="round"/>
<path d="M12.4553 54.6733L5.72989 58.454L5.31519 52.6539C6.04507 52.356 6.86726 52.0697 7.72624 51.8007L12.4553 54.6733Z" fill="#F5D256" stroke="black" stroke-width="0.641089" stroke-linecap="round" stroke-linejoin="round"/>
<path d="M24.6528 65.2256L15.2509 62.9285L19.54 57.6289C20.6197 58.9985 22.0297 60.0429 23.4072 60.7799L24.6528 65.2256Z" fill="#E938B5" stroke="black" stroke-width="0.641089" stroke-linecap="round" stroke-linejoin="round"/>
<path d="M24.4501 73.2766C23.8132 74.7753 23.0011 76.489 22.101 77.8795H22.1003L19.7707 79.1892L19.1173 70.0376L24.4501 73.2766Z" fill="#49A2A6" stroke="black" stroke-width="0.641089" stroke-linecap="round" stroke-linejoin="round"/>
<path d="M28.1499 62.0867C27.78 62.1978 27.053 62.135 26.1471 61.8884C24.1681 61.3511 21.3329 59.9403 19.4916 57.5675C17.9013 55.5185 17.1231 53.1522 16.8108 51.3758C16.6897 50.6884 16.6392 50.0898 16.637 49.6326C16.6356 49.2756 16.6644 49.0044 16.7135 48.8428C16.9883 47.9391 18.7329 47.9745 19.5738 47.9355C20.4155 47.8959 21.5457 49.8634 21.5457 49.8634C21.0365 50.0264 20.5028 50.1973 19.9518 50.3733C19.9518 50.3733 19.9518 52.7295 22.4011 55.7781C24.6527 58.5794 27.3371 59.6922 27.3371 59.6922L28.1752 58.1467C28.2163 58.1668 29.5282 58.8369 29.7287 59.6922C29.803 60.0103 29.3284 61.7333 28.1499 62.0867Z" stroke="black" stroke-width="0.641089" stroke-linecap="round" stroke-linejoin="round"/>
<path d="M25.7172 70.0404C25.0515 71.8297 22.1313 79.981 19.1865 80.5508C16.2418 81.1206 9.44998 75.4207 6.07752 70.8611C2.70507 66.3015 0.61568 56.5657 2.70507 54.1907C4.79518 51.8164 16.637 49.6326 16.637 49.6326C16.6392 50.0898 16.6896 50.6884 16.8108 51.3758C17.1231 53.1522 17.9013 55.5185 19.4916 57.5675C21.3329 59.9403 24.168 61.3511 26.1471 61.8884C27.0529 62.135 27.7799 62.1978 28.1499 62.0867C28.1499 62.0867 26.4565 68.0549 25.7172 70.0411V70.0404Z" stroke="black" stroke-width="0.641089" stroke-linecap="round" stroke-linejoin="round"/>
<path d="M39.5251 51.9066C39.0895 52.7317 31.7683 54.4901 30.3237 54.1807L28.1752 58.1467L27.3371 59.6923C27.3371 59.6923 24.6527 58.5794 22.4011 55.7782C19.9518 52.7296 19.9518 50.3733 19.9518 50.3733C20.5028 50.1973 21.0365 50.0264 21.5457 49.8634C24.4183 48.9438 26.5084 48.2717 26.5084 48.2717C26.5084 48.2717 26.489 44.8934 28.199 43.443C30.4802 41.508 30.8546 37.2463 31.8203 37.0854C32.786 36.9239 33.7402 40.3677 33.1423 43.1848C33.1423 43.1848 37.8512 42.8257 38.3668 43.2382C38.8825 43.6515 39.347 44.2703 38.5731 45.2504C38.5731 45.2504 39.6535 46.4888 38.9842 47.4689C38.9842 47.4689 40.0386 48.7981 39.2027 49.7329C39.2027 49.7329 39.9608 51.0808 39.5251 51.9066Z" stroke="black" stroke-width="0.641089" stroke-linecap="round" stroke-linejoin="round"/>
</g>
</g>
<defs>
<filter id="filter0_d_2_77300" x="0" y="0" width="88" height="88" filterUnits="userSpaceOnUse" color-interpolation-filters="sRGB">
<feFlood flood-opacity="0" result="BackgroundImageFix"/>
<feColorMatrix in="SourceAlpha" type="matrix" values="0 0 0 0 0 0 0 0 0 0 0 0 0 0 0 0 0 0 127 0" result="hardAlpha"/>
<feOffset dy="2"/>
<feGaussianBlur stdDeviation="2"/>
<feColorMatrix type="matrix" values="0 0 0 0 0.105882 0 0 0 0 0.109804 0 0 0 0 0.113725 0 0 0 0.04 0"/>
<feBlend mode="normal" in2="BackgroundImageFix" result="effect1_dropShadow_2_77300"/>
<feBlend mode="normal" in="SourceGraphic" in2="effect1_dropShadow_2_77300" result="shape"/>
</filter>
<clipPath id="clip0_2_77300">
<rect x="8" y="6" width="72" height="72" rx="36" fill="white"/>
</clipPath>
</defs>
</svg>
