<svg width="304" height="153" viewBox="0 0 304 153" fill="none" xmlns="http://www.w3.org/2000/svg">
<path d="M1.14282 25.6667V1H26.2857M1.14282 25.6667V50.3333M1.14282 25.6667H26.2857M1.14282 50.3333V75M1.14282 50.3333H26.2857M1.14282 75V99.6667M1.14282 75H26.2857M1.14282 99.6667V124.333M1.14282 99.6667H26.2857M1.14282 124.333V149H26.2857M1.14282 124.333H26.2857M26.2857 1V25.6667M26.2857 1H51.4285M26.2857 25.6667V50.3333M26.2857 25.6667H51.4285M26.2857 50.3333V75M26.2857 50.3333H51.4285M26.2857 75V99.6667M26.2857 75H51.4285M26.2857 99.6667V124.333M26.2857 99.6667H51.4285M26.2857 124.333V149M26.2857 124.333H51.4285M26.2857 149H51.4285M51.4285 1V25.6667M51.4285 1H76.5714M51.4285 25.6667V50.3333M51.4285 25.6667H76.5714M51.4285 50.3333V75M51.4285 50.3333H76.5714M51.4285 75V99.6667M51.4285 75H76.5714M51.4285 99.6667V124.333M51.4285 99.6667H76.5714M51.4285 124.333V149M51.4285 124.333H76.5714M51.4285 149H76.5714M76.5714 1V25.6667M76.5714 1H101.714M76.5714 25.6667V50.3333M76.5714 25.6667H101.714M76.5714 50.3333V75M76.5714 50.3333H101.714M76.5714 75V99.6667M76.5714 75H101.714M76.5714 99.6667V124.333M76.5714 99.6667H101.714M76.5714 124.333V149M76.5714 124.333H101.714M76.5714 149H101.714M101.714 1V25.6667M101.714 1H126.857M101.714 25.6667V50.3333M101.714 25.6667H126.857M101.714 50.3333V75M101.714 50.3333H126.857M101.714 75V99.6667M101.714 75H126.857M101.714 99.6667V124.333M101.714 99.6667H126.857M101.714 124.333V149M101.714 124.333H126.857M101.714 149H126.857M126.857 1V25.6667M126.857 1H152M126.857 25.6667V50.3333M126.857 25.6667H152M126.857 50.3333V75M126.857 50.3333H152M126.857 75V99.6667M126.857 75H152M126.857 99.6667V124.333M126.857 99.6667H152M126.857 124.333V149M126.857 124.333H152M126.857 149H152M152 1V25.6667M152 1H177.143M152 25.6667V50.3333M152 25.6667H177.143M152 50.3333V75M152 50.3333H177.143M152 75V99.6667M152 75H177.143M152 99.6667V124.333M152 99.6667H177.143M152 124.333V149M152 124.333H177.143M152 149H177.143M177.143 1V25.6667M177.143 1H202.286M177.143 25.6667V50.3333M177.143 25.6667H202.286M177.143 50.3333V75M177.143 50.3333H202.286M177.143 75V99.6667M177.143 75H202.286M177.143 99.6667V124.333M177.143 99.6667H202.286M177.143 124.333V149M177.143 124.333H202.286M177.143 149H202.286M202.286 1V25.6667M202.286 1H227.429M202.286 25.6667V50.3333M202.286 25.6667H227.429M202.286 50.3333V75M202.286 50.3333H227.429M202.286 75V99.6667M202.286 75H227.429M202.286 99.6667V124.333M202.286 99.6667H227.429M202.286 124.333V149M202.286 124.333H227.429M202.286 149H227.429M227.429 1V25.6667M227.429 1H252.571M227.429 25.6667V50.3333M227.429 25.6667H252.571M227.429 50.3333V75M227.429 50.3333H252.571M227.429 75V99.6667M227.429 75H252.571M227.429 99.6667V124.333M227.429 99.6667H252.571M227.429 124.333V149M227.429 124.333H252.571M227.429 149H252.571M252.571 1V25.6667M252.571 1H277.714M252.571 25.6667V50.3333M252.571 25.6667H277.714M252.571 50.3333V75M252.571 50.3333H277.714M252.571 75V99.6667M252.571 75H277.714M252.571 99.6667V124.333M252.571 99.6667H277.714M252.571 124.333V149M252.571 124.333H277.714M252.571 149H277.714M277.714 1V25.6667M277.714 1H302.857V25.6667M277.714 25.6667V50.3333M277.714 25.6667H302.857M277.714 50.3333V75M277.714 50.3333H302.857M277.714 75V99.6667M277.714 75H302.857M277.714 99.6667V124.333M277.714 99.6667H302.857M277.714 124.333V149M277.714 124.333H302.857M277.714 149H302.857V124.333M302.857 25.6667V50.3333M302.857 50.3333V75M302.857 75V99.6667M302.857 99.6667V124.333" stroke="url(#paint0_radial_2_89130)"/>
<path d="M130.95 59C132.082 59 133 59.7959 133 60.7778V89.2222C133 90.2041 132.082 91 130.95 91L39.0535 91C37.3065 91 36.3605 89.2257 37.4917 88.071L49.1698 76.1512C49.8202 75.4874 49.8202 74.5126 49.1698 73.8488L37.4917 61.929C36.3605 60.7743 37.3065 59 39.0535 59L130.95 59Z" fill="#FEF3EB"/>
<path d="M166.05 59C164.918 59 164 59.7959 164 60.7778L164 89.2222C164 90.2041 164.918 91 166.05 91L257.947 91C259.693 91 260.64 89.2257 259.508 88.071L247.83 76.1512C247.18 75.4874 247.18 74.5126 247.83 73.8488L259.508 61.929C260.64 60.7743 259.693 59 257.947 59L166.05 59Z" fill="#FEF3EB"/>
<g filter="url(#filter0_d_2_89130)">
<path d="M150.514 8.64995C151.308 7.76794 152.692 7.76794 153.486 8.64995L158.668 14.4031C159.326 15.1339 160.418 15.2777 161.243 14.7421L167.737 10.5261C168.733 9.8798 170.069 10.2378 170.608 11.2954L174.124 18.1937C174.571 19.0699 175.588 19.4914 176.524 19.1876L183.888 16.7961C185.017 16.4295 186.215 17.1212 186.462 18.2822L188.073 25.8555C188.278 26.8175 189.151 27.488 190.134 27.4366L197.866 27.0326C199.051 26.9707 200.029 27.9488 199.967 29.1342L199.563 36.8664C199.512 37.8486 200.182 38.7224 201.145 38.927L208.718 40.538C209.879 40.785 210.571 41.983 210.204 43.112L207.812 50.4761C207.509 51.4116 207.93 52.429 208.806 52.8757L215.705 56.3919C216.762 56.931 217.12 58.2672 216.474 59.2628L212.258 65.757C211.722 66.582 211.866 67.6739 212.597 68.3321L218.35 73.5139C219.232 74.3083 219.232 75.6917 218.35 76.4861L212.597 81.6679C211.866 82.3261 211.722 83.418 212.258 84.243L216.474 90.7372C217.12 91.7328 216.762 93.069 215.705 93.6081L208.806 97.1243C207.93 97.571 207.509 98.5884 207.812 99.5239L210.204 106.888C210.571 108.017 209.879 109.215 208.718 109.462L201.145 111.073C200.182 111.278 199.512 112.151 199.563 113.134L199.967 120.866C200.029 122.051 199.051 123.029 197.866 122.967L190.134 122.563C189.151 122.512 188.278 123.182 188.073 124.145L186.462 131.718C186.215 132.879 185.017 133.571 183.888 133.204L176.524 130.812C175.588 130.509 174.571 130.93 174.124 131.806L170.608 138.705C170.069 139.762 168.733 140.12 167.737 139.474L161.243 135.258C160.418 134.722 159.326 134.866 158.668 135.597L153.486 141.35C152.692 142.232 151.308 142.232 150.514 141.35L145.332 135.597C144.674 134.866 143.582 134.722 142.757 135.258L136.263 139.474C135.267 140.12 133.931 139.762 133.392 138.705L129.876 131.806C129.429 130.93 128.412 130.509 127.476 130.812L120.112 133.204C118.983 133.571 117.785 132.879 117.538 131.718L115.927 124.145C115.722 123.182 114.849 122.512 113.866 122.563L106.134 122.967C104.949 123.029 103.971 122.051 104.033 120.866L104.437 113.134C104.488 112.151 103.818 111.278 102.855 111.073L95.2822 109.462C94.1212 109.215 93.4295 108.017 93.7961 106.888L96.1876 99.5239C96.4914 98.5884 96.0699 97.571 95.1937 97.1243L88.2954 93.6081C87.2378 93.069 86.8798 91.7328 87.5261 90.7372L91.7421 84.243C92.2777 83.418 92.1339 82.3261 91.4031 81.6679L85.6499 76.4861C84.7679 75.6917 84.7679 74.3083 85.6499 73.5139L91.4031 68.3321C92.1339 67.6739 92.2777 66.582 91.7421 65.757L87.5261 59.2628C86.8798 58.2672 87.2378 56.931 88.2954 56.3919L95.1937 52.8757C96.0699 52.429 96.4914 51.4116 96.1876 50.4761L93.7961 43.112C93.4295 41.983 94.1212 40.785 95.2822 40.538L102.855 38.927C103.818 38.7224 104.488 37.8486 104.437 36.8664L104.033 29.1342C103.971 27.9488 104.949 26.9707 106.134 27.0326L113.866 27.4366C114.849 27.488 115.722 26.8175 115.927 25.8555L117.538 18.2822C117.785 17.1212 118.983 16.4295 120.112 16.7961L127.476 19.1876C128.412 19.4914 129.429 19.0699 129.876 18.1937L133.392 11.2954C133.931 10.2378 135.267 9.8798 136.263 10.5261L142.757 14.7421C143.582 15.2777 144.674 15.1339 145.332 14.4031L150.514 8.64995Z" fill="white"/>
<path d="M154.972 7.31146L153.486 8.64995L154.972 7.31145C153.383 5.54744 150.617 5.54743 149.028 7.31146L143.846 13.0646L137.352 8.84864C135.361 7.55594 132.688 8.27201 131.61 10.3871L128.094 17.2854L120.73 14.8939C118.472 14.1606 116.076 15.544 115.582 17.8661L113.971 25.4394L106.239 25.0353C103.868 24.9115 101.911 26.8678 102.035 29.2386L102.439 36.9708L94.8661 38.5818C92.544 39.0757 91.1606 41.4717 91.8939 43.7297L94.2854 51.0938L87.3871 54.61C85.272 55.6882 84.5559 58.3606 85.8486 60.3518L90.0646 66.8461L84.3115 72.0278L85.6499 73.5139L84.3115 72.0278C82.5474 73.6167 82.5474 76.3833 84.3115 77.9722L85.643 76.4938L84.3115 77.9722L90.0646 83.1539L85.8486 89.6482L87.5261 90.7372L85.8486 89.6482C84.5559 91.6395 85.272 94.3118 87.3871 95.39L94.2854 98.9062L91.8939 106.27C91.1606 108.528 92.544 110.924 94.8661 111.418L102.439 113.029L102.035 120.761C101.911 123.132 103.868 125.089 106.239 124.965L113.971 124.561L115.582 132.134C116.076 134.456 118.472 135.839 120.73 135.106L128.094 132.715L131.61 139.613C132.688 141.728 135.361 142.444 137.352 141.151L143.846 136.935L149.028 142.689C150.617 144.453 153.383 144.453 154.972 142.689L160.154 136.935L166.648 141.151C168.639 142.444 171.312 141.728 172.39 139.613L175.906 132.715L183.27 135.106C185.528 135.839 187.924 134.456 188.418 132.134L190.029 124.561L197.761 124.965C200.132 125.089 202.089 123.132 201.965 120.761L201.561 113.029L209.134 111.418C211.456 110.924 212.839 108.528 212.106 106.27L209.715 98.9062L216.613 95.39C218.728 94.3119 219.444 91.6394 218.151 89.6482L213.935 83.1539L219.689 77.9722C221.453 76.3833 221.453 73.6167 219.689 72.0278L213.935 66.8461L218.151 60.3518C219.444 58.3605 218.728 55.6881 216.613 54.61L209.715 51.0938L212.106 43.7297C212.839 41.4717 211.456 39.0757 209.134 38.5818L201.561 36.9708L201.965 29.2386C202.089 26.8678 200.132 24.9115 197.761 25.0353L190.029 25.4394L188.418 17.8661C187.924 15.544 185.528 14.1606 183.27 14.8939L175.906 17.2854L172.39 10.3871C171.312 8.27201 168.639 7.55594 166.648 8.84864L160.154 13.0646L154.972 7.31146Z" stroke="white" stroke-width="4"/>
</g>
<g filter="url(#filter1_i_2_89130)">
<path d="M148.285 11.1249C150.271 8.91984 153.729 8.91984 155.715 11.1249L156.954 12.4999C158.599 14.3269 161.329 14.6863 163.391 13.3474L164.943 12.3398C167.433 10.7239 170.773 11.619 172.121 14.2629L172.961 15.9116C174.078 18.1023 176.621 19.1559 178.96 18.3965L180.72 17.8249C183.543 16.9083 186.538 18.6375 187.155 21.5401L187.54 23.3501C188.052 25.7552 190.236 27.4313 192.692 27.303L194.539 27.2064C197.503 27.0516 199.948 29.497 199.794 32.4605L199.697 34.3085C199.569 36.764 201.245 38.9484 203.65 39.46L205.46 39.845C208.363 40.4624 210.092 43.4574 209.175 46.2799L208.604 48.0399C207.844 50.3785 208.898 52.9223 211.088 54.0389L212.737 54.8793C215.381 56.2269 216.276 59.5674 214.66 62.0565L213.653 63.6086C212.314 65.671 212.673 68.4008 214.5 70.0464L215.875 71.2848C218.08 73.2708 218.08 76.7292 215.875 78.7152L214.5 79.9536C212.673 81.5992 212.314 84.329 213.653 86.3914L214.66 87.9435C216.276 90.4326 215.381 93.773 212.737 95.1207L211.088 95.9611C208.898 97.0777 207.844 99.6215 208.604 101.96L209.175 103.72C210.092 106.543 208.363 109.538 205.46 110.155L203.65 110.54C201.245 111.052 199.569 113.236 199.697 115.692L199.794 117.539C199.948 120.503 197.503 122.948 194.539 122.794L192.692 122.697C190.236 122.569 188.052 124.245 187.54 126.65L187.155 128.46C186.538 131.363 183.543 133.092 180.72 132.175L178.96 131.604C176.621 130.844 174.078 131.898 172.961 134.088L172.121 135.737C170.773 138.381 167.433 139.276 164.943 137.66L163.391 136.653C161.329 135.314 158.599 135.673 156.954 137.5L155.715 138.875C153.729 141.08 150.271 141.08 148.285 138.875L147.046 137.5C145.401 135.673 142.671 135.314 140.609 136.653L139.057 137.66C136.567 139.276 133.227 138.381 131.879 135.737L131.039 134.088C129.922 131.898 127.379 130.844 125.04 131.604L123.28 132.175C120.457 133.092 117.462 131.363 116.845 128.46L116.46 126.65C115.948 124.245 113.764 122.569 111.308 122.697L109.461 122.794C106.497 122.948 104.052 120.503 104.206 117.539L104.303 115.692C104.431 113.236 102.755 111.052 100.35 110.54L98.5401 110.155C95.6375 109.538 93.9083 106.543 94.8249 103.72L95.3965 101.96C96.1559 99.6215 95.1023 97.0777 92.9116 95.9611L91.2629 95.1207C88.619 93.7731 87.7239 90.4326 89.3398 87.9435L90.3474 86.3914C91.6863 84.329 91.3269 81.5992 89.4999 79.9536L88.1249 78.7152C85.9198 76.7292 85.9198 73.2708 88.1249 71.2848L89.4999 70.0464C91.3269 68.4008 91.6863 65.671 90.3474 63.6086L89.3398 62.0565C87.7239 59.5674 88.619 56.2269 91.2629 54.8793L92.9116 54.0389C95.1023 52.9223 96.1559 50.3785 95.3965 48.0399L94.8249 46.2799C93.9083 43.4574 95.6375 40.4624 98.5401 39.845L100.35 39.46C102.755 38.9484 104.431 36.764 104.303 34.3085L104.206 32.4605C104.052 29.497 106.497 27.0516 109.461 27.2064L111.308 27.303C113.764 27.4313 115.948 25.7552 116.46 23.3501L116.845 21.5401C117.462 18.6375 120.457 16.9083 123.28 17.8249L125.04 18.3965C127.379 19.1559 129.922 18.1023 131.039 15.9116L131.879 14.2629C133.227 11.619 136.567 10.7239 139.057 12.3398L140.609 13.3474C142.671 14.6863 145.401 14.3269 147.046 12.4999L148.285 11.1249Z" fill="#FFBEA3"/>
</g>
<circle cx="152" cy="75" r="48" fill="white"/>
<circle cx="152" cy="75" r="49.5" stroke="url(#paint1_linear_2_89130)" stroke-opacity="0.16" stroke-width="3" style="mix-blend-mode:luminosity"/>
<defs>
<filter id="filter0_d_2_89130" x="76.9884" y="1.9884" width="150.023" height="150.023" filterUnits="userSpaceOnUse" color-interpolation-filters="sRGB">
<feFlood flood-opacity="0" result="BackgroundImageFix"/>
<feColorMatrix in="SourceAlpha" type="matrix" values="0 0 0 0 0 0 0 0 0 0 0 0 0 0 0 0 0 0 127 0" result="hardAlpha"/>
<feOffset dy="2"/>
<feGaussianBlur stdDeviation="2"/>
<feColorMatrix type="matrix" values="0 0 0 0 0.105882 0 0 0 0 0.109804 0 0 0 0 0.113725 0 0 0 0.04 0"/>
<feBlend mode="normal" in2="BackgroundImageFix" result="effect1_dropShadow_2_89130"/>
<feBlend mode="normal" in="SourceGraphic" in2="effect1_dropShadow_2_89130" result="shape"/>
</filter>
<filter id="filter1_i_2_89130" x="86.4711" y="9.47107" width="131.058" height="135.058" filterUnits="userSpaceOnUse" color-interpolation-filters="sRGB">
<feFlood flood-opacity="0" result="BackgroundImageFix"/>
<feBlend mode="normal" in="SourceGraphic" in2="BackgroundImageFix" result="shape"/>
<feColorMatrix in="SourceAlpha" type="matrix" values="0 0 0 0 0 0 0 0 0 0 0 0 0 0 0 0 0 0 127 0" result="hardAlpha"/>
<feOffset dy="4"/>
<feGaussianBlur stdDeviation="2"/>
<feComposite in2="hardAlpha" operator="arithmetic" k2="-1" k3="1"/>
<feColorMatrix type="matrix" values="0 0 0 0 0.952 0 0 0 0 0.647328 0 0 0 0 0.248 0 0 0 0.06 0"/>
<feBlend mode="normal" in2="shape" result="effect1_innerShadow_2_89130"/>
</filter>
<radialGradient id="paint0_radial_2_89130" cx="0" cy="0" r="1" gradientUnits="userSpaceOnUse" gradientTransform="translate(152 75) rotate(90) scale(74 122.255)">
<stop stop-color="#CFD1D3"/>
<stop offset="1" stop-color="#CFD1D3" stop-opacity="0"/>
</radialGradient>
<linearGradient id="paint1_linear_2_89130" x1="120.598" y1="36.8692" x2="177.121" y2="120.757" gradientUnits="userSpaceOnUse">
<stop stop-color="#0F0F10"/>
<stop offset="1" stop-color="#0F0F10" stop-opacity="0"/>
</linearGradient>
</defs>
</svg>
