<svg width="22" height="21" viewBox="0 0 22 21" fill="none" xmlns="http://www.w3.org/2000/svg">
<path d="M16 14.75H17.5V16.25H2.5V14.75H4V9.5C4 7.9087 4.63214 6.38258 5.75736 5.25736C6.88258 4.13214 8.4087 3.5 10 3.5C11.5913 3.5 13.1174 4.13214 14.2426 5.25736C15.3679 6.38258 16 7.9087 16 9.5V14.75ZM14.5 14.75V9.5C14.5 8.30653 14.0259 7.16193 13.182 6.31802C12.3381 5.47411 11.1935 5 10 5C8.80653 5 7.66193 5.47411 6.81802 6.31802C5.97411 7.16193 5.5 8.30653 5.5 9.5V14.75H14.5ZM7.75 17.75H12.25V19.25H7.75V17.75Z" fill="#525866"/>
<g filter="url(#filter0_d_0_1)">
<path d="M18 5C18 6.10457 17.1046 7 16 7C14.8954 7 14 6.10457 14 5C14 3.89543 14.8954 3 16 3C17.1046 3 18 3.89543 18 5Z" fill="#DF1C41"/>
<path d="M16 8C17.6569 8 19 6.65685 19 5C19 3.34315 17.6569 2 16 2C14.3431 2 13 3.34315 13 5C13 6.65685 14.3431 8 16 8Z" stroke="white" stroke-width="2"/>
</g>
<defs>
<filter id="filter0_d_0_1" x="10" y="0" width="12" height="12" filterUnits="userSpaceOnUse" color-interpolation-filters="sRGB">
<feFlood flood-opacity="0" result="BackgroundImageFix"/>
<feColorMatrix in="SourceAlpha" type="matrix" values="0 0 0 0 0 0 0 0 0 0 0 0 0 0 0 0 0 0 127 0" result="hardAlpha"/>
<feOffset dy="1"/>
<feGaussianBlur stdDeviation="1"/>
<feComposite in2="hardAlpha" operator="out"/>
<feColorMatrix type="matrix" values="0 0 0 0 0.894118 0 0 0 0 0.898039 0 0 0 0 0.905882 0 0 0 0.24 0"/>
<feBlend mode="normal" in2="BackgroundImageFix" result="effect1_dropShadow_0_1"/>
<feBlend mode="normal" in="SourceGraphic" in2="effect1_dropShadow_0_1" result="shape"/>
</filter>
</defs>
</svg>
