<svg width="88" height="88" viewBox="0 0 88 88" fill="none" xmlns="http://www.w3.org/2000/svg">
<g filter="url(#filter0_d_2_76195)">
<path d="M8 42C8 22.1178 24.1178 6 44 6C63.8823 6 80 22.1178 80 42C80 61.8823 63.8823 78 44 78C24.1178 78 8 61.8823 8 42Z" fill="#FFBEA3"/>
<path d="M44 4C23.0132 4 6 21.0132 6 42C6 62.9868 23.0132 80 44 80C64.9868 80 82 62.9868 82 42C82 21.0132 64.9868 4 44 4Z" stroke="white" stroke-width="4"/>
<path d="M49.4 24C50.6641 23.9999 51.9059 24.3325 53.0007 24.9646C54.0955 25.5966 55.0045 26.5057 55.6365 27.6005C56.2685 28.6953 56.601 29.9372 56.6008 31.2014C56.6006 32.4655 56.2675 33.7072 55.6352 34.8018L63.7999 34.8V38.4H60.2V56.4C60.2 56.8774 60.0103 57.3352 59.6727 57.6728C59.3352 58.0104 58.8773 58.2 58.4 58.2H29.6C29.1226 58.2 28.6647 58.0104 28.3272 57.6728C27.9896 57.3352 27.8 56.8774 27.8 56.4V38.4H24.2V34.8L32.3648 34.8018C31.4717 33.2554 31.1852 31.4323 31.5608 29.6865C31.9365 27.9407 32.9475 26.3968 34.3976 25.3546C35.8476 24.3124 37.6332 23.8462 39.4077 24.0466C41.1822 24.247 42.8189 25.0996 44 26.439C44.6742 25.6711 45.5049 25.0562 46.4362 24.6356C47.3675 24.2149 48.378 23.9982 49.4 24ZM42.2 38.4H31.4V54.6H42.2V38.4ZM56.5999 38.4H45.7999V54.6H56.5999V38.4ZM38.6 27.6C37.6658 27.5958 36.7666 27.9549 36.0923 28.6015C35.418 29.248 35.0214 30.1314 34.9864 31.0649C34.9513 31.9984 35.2805 32.909 35.9044 33.6043C36.5283 34.2996 37.3981 34.7251 38.33 34.791L38.6 34.8H42.2V31.2C42.2 30.3397 41.8919 29.5079 41.3316 28.8551C40.7713 28.2023 39.9957 27.7717 39.1454 27.6414L38.8682 27.609L38.6 27.6ZM49.4 27.6C48.4917 27.5997 47.6169 27.9427 46.951 28.5603C46.285 29.1779 45.8771 30.0243 45.809 30.93L45.7999 31.2V34.8H49.4C50.3082 34.8003 51.183 34.4573 51.8489 33.8397C52.5149 33.2222 52.9228 32.3757 52.991 31.47L53 31.2C53 30.2452 52.6207 29.3296 51.9455 28.6544C51.2704 27.9793 50.3547 27.6 49.4 27.6Z" fill="#C73A00"/>
</g>
<defs>
<filter id="filter0_d_2_76195" x="0" y="0" width="88" height="88" filterUnits="userSpaceOnUse" color-interpolation-filters="sRGB">
<feFlood flood-opacity="0" result="BackgroundImageFix"/>
<feColorMatrix in="SourceAlpha" type="matrix" values="0 0 0 0 0 0 0 0 0 0 0 0 0 0 0 0 0 0 127 0" result="hardAlpha"/>
<feOffset dy="2"/>
<feGaussianBlur stdDeviation="2"/>
<feColorMatrix type="matrix" values="0 0 0 0 0.105882 0 0 0 0 0.109804 0 0 0 0 0.113725 0 0 0 0.04 0"/>
<feBlend mode="normal" in2="BackgroundImageFix" result="effect1_dropShadow_2_76195"/>
<feBlend mode="normal" in="SourceGraphic" in2="effect1_dropShadow_2_76195" result="shape"/>
</filter>
</defs>
</svg>
